# xmcd
#
# Track frame offsets:
#	150
#	14322
#	32735
#	46309
#	60648
#	76773
#	94245
#	109876
#	126828
#	143277
#	157846
#	172728
#	185896
#
# Disc length: 2630
#
# Revision: 1
# Processed by: cddbd v1.5.1PL0 Copyright (c) Steve Scherf et al.
# Submitted via: dBpowerAMP V4.0
# Normalized: r0:TRMNUM
#
DISCID=9b0a440d
DTITLE=N Batista - Um Passo Para Liberdade
DYEAR=2003
DGENRE=Forró
TTITLE0=um Passo Para Liberdade
TTITLE1=Rico de Amor
TTITLE2=Casa de Taipa
TTITLE3=em Busca do Sucesso
TTITLE4=do Jeito Que o Diabo Quer
TTITLE5=a Vida de um Homem Só
TTITLE6=Homenagem a Mãe Querida
TTITLE7=a Vida do Azarado
TTITLE8=Destino Cruel
TTITLE9=as Coisas do Meu Sertão
TTITLE10=Desafio a um Poeta
TTITLE11=Saudades
TTITLE12=Deixar de Andar a Pé
EXTD=
EXTT0=
EXTT1=
EXTT2=
EXTT3=
EXTT4=
EXTT5=
EXTT6=
EXTT7=
EXTT8=
EXTT9=
EXTT10=
EXTT11=
EXTT12=
PLAYORDER=
